<svg xmlns="http://www.w3.org/2000/svg" width="20.571" height="16" viewBox="0 0 20.571 16">
  <defs>
    <style>
      .cls-1 {
        fill: #fff;
      }
    </style>
  </defs>
  <path id="FontAwsome_comments_" data-name="FontAwsome (comments)" class="cls-1" d="M14.857,37.714c0-3.157-3.325-5.714-7.429-5.714S0,34.557,0,37.714A4.845,4.845,0,0,0,1.357,41,8.038,8.038,0,0,1,.079,42.946a.284.284,0,0,0-.054.311.28.28,0,0,0,.261.171,6.288,6.288,0,0,0,3.168-.893,9.087,9.087,0,0,0,3.975.893C11.532,43.429,14.857,40.871,14.857,37.714Zm4.357,7.857a4.838,4.838,0,0,0,1.357-3.286c0-2.389-1.911-4.436-4.618-5.289a5.307,5.307,0,0,1,.046.718c0,3.782-3.846,6.857-8.571,6.857A10.707,10.707,0,0,1,6.3,44.5c1.125,2.054,3.768,3.5,6.846,3.5a9.038,9.038,0,0,0,3.975-.893A6.288,6.288,0,0,0,20.286,48a.282.282,0,0,0,.261-.171.286.286,0,0,0-.054-.311A7.953,7.953,0,0,1,19.214,45.571Z" transform="translate(0 -32)"/>
</svg>
