<svg xmlns="http://www.w3.org/2000/svg" width="13.746" height="20" viewBox="0 0 13.746 20">
  <defs>
    <style>
      .cls-1 {
        fill: #fff;
      }
    </style>
  </defs>
  <path id="FontAwsome_question_" data-name="FontAwsome (question)" class="cls-1" d="M32.489,0a7.568,7.568,0,0,0-6.723,3.556.938.938,0,0,0,.2,1.284l1.685,1.278a.937.937,0,0,0,1.3-.162c.978-1.226,1.7-1.932,3.233-1.932,1.2,0,2.688.773,2.688,1.939,0,.881-.727,1.333-1.914,2-1.384.776-3.215,1.741-3.215,4.156V12.5a.937.937,0,0,0,.938.938h2.831a.937.937,0,0,0,.938-.937v-.226c0-1.674,4.893-1.744,4.893-6.274C39.344,2.588,35.8,0,32.489,0ZM32.1,14.588A2.706,2.706,0,1,0,34.8,17.294,2.709,2.709,0,0,0,32.1,14.588Z" transform="translate(-25.597)"/>
</svg>
