<svg xmlns="http://www.w3.org/2000/svg" width="21.25" height="20" viewBox="0 0 21.25 20">
  <defs>
    <style>
      .cls-1 {
        fill: #fff;
      }
    </style>
  </defs>
  <path id="FontAwsome_chart-pie_" data-name="FontAwsome (chart-pie)" class="cls-1" d="M20.615,11.254H11.346l6.173,6.173a.627.627,0,0,0,.867.027,9.355,9.355,0,0,0,2.857-5.5.626.626,0,0,0-.627-.7ZM20,8.723A9.4,9.4,0,0,0,11.279.005a.629.629,0,0,0-.656.633V9.379h8.741A.628.628,0,0,0,20,8.723ZM8.748,11.254V1.985a.626.626,0,0,0-.7-.627A9.368,9.368,0,0,0,0,10.956,9.491,9.491,0,0,0,9.491,20a9.3,9.3,0,0,0,5.284-1.72.621.621,0,0,0,.061-.941Z" transform="translate(0.002 -0.004)"/>
</svg>
