<?xml version="1.0" encoding="utf-8"?>
<!-- Generator: Adobe Illustrator 25.3.1, SVG Export Plug-In . SVG Version: 6.00 Build 0)  -->
<svg version="1.1" id="Layer_1" xmlns="http://www.w3.org/2000/svg" xmlns:xlink="http://www.w3.org/1999/xlink" x="0px" y="0px"
	 viewBox="0 0 24 24" style="enable-background:new 0 0 24 24;" xml:space="preserve">
<style type="text/css">
	.st0{fill:#0D0D0D;}
</style>
<path id="FontAwsome_question-circle_" class="st0" d="M12,0C5.4,0,0,5.4,0,12s5.4,12,12,12s12-5.4,12-12S18.6,0,12,0z M12,21.7
	c-5.3,0-9.7-4.3-9.7-9.7S6.7,2.3,12,2.3s9.7,4.3,9.7,9.7l0,0C21.7,17.3,17.4,21.7,12,21.7C12,21.7,12,21.7,12,21.7z M17.2,9.3
	c0,3.2-3.5,3.3-3.5,4.5v0.3c0,0.3-0.3,0.6-0.6,0.6h-2.2c-0.3,0-0.6-0.3-0.6-0.6v-0.4c0-1.7,1.3-2.4,2.3-3c0.9-0.5,1.4-0.8,1.4-1.4
	c0-0.8-1.1-1.4-1.9-1.4c-1.1,0-1.6,0.5-2.4,1.5C9.5,9.6,9.1,9.7,8.9,9.5l-1.3-1C7.3,8.3,7.2,7.9,7.4,7.7C8.4,6,10.3,5,12.3,5
	C14.7,5,17.2,6.9,17.2,9.3z M14,17.4c0,1.1-0.9,2-2,2c-1.1,0-2-0.9-2-2c0-1.1,0.9-2,2-2C13.1,15.4,14,16.3,14,17.4z"/>
</svg>
