<?xml version="1.0" encoding="utf-8"?>
<!-- Generator: Adobe Illustrator 25.3.1, SVG Export Plug-In . SVG Version: 6.00 Build 0)  -->
<svg version="1.1" id="Layer_1" xmlns="http://www.w3.org/2000/svg" xmlns:xlink="http://www.w3.org/1999/xlink" x="0px" y="0px"
	 viewBox="0 0 24 24" style="enable-background:new 0 0 24 24;" xml:space="preserve">
<style type="text/css">
	.st0{fill:#0D0D0D;}
</style>
<path id="FontAwsome_save_" class="st0" d="M23.2,5.2l-4.5-4.5C18.3,0.3,17.6,0,16.9,0H2.6C1.2,0,0,1.2,0,2.6v18.9
	C0,22.8,1.2,24,2.6,24h18.9c1.4,0,2.6-1.2,2.6-2.6V7.1C24,6.4,23.7,5.7,23.2,5.2z M14.6,2.6v4.3H7.7V2.6L14.6,2.6z M21.1,21.4H2.9
	c-0.2,0-0.3-0.1-0.3-0.3V2.9c0-0.2,0.1-0.3,0.3-0.3h2.2v5.6c0,0.7,0.6,1.3,1.3,1.3h9.4c0.7,0,1.3-0.6,1.3-1.3V2.8L21.3,7
	c0.1,0.1,0.1,0.1,0.1,0.2v13.9C21.4,21.3,21.3,21.4,21.1,21.4C21.1,21.4,21.1,21.4,21.1,21.4L21.1,21.4z M12,10.7
	c-2.6,0-4.7,2.1-4.7,4.7s2.1,4.7,4.7,4.7s4.7-2.1,4.7-4.7C16.7,12.8,14.6,10.7,12,10.7z M12,17.6c-1.2,0-2.1-1-2.1-2.1
	c0-1.2,1-2.1,2.1-2.1s2.1,1,2.1,2.1C14.1,16.6,13.2,17.6,12,17.6z"/>
</svg>
