<svg xmlns="http://www.w3.org/2000/svg" width="18" height="24" viewBox="0 0 18 24">
  <defs>
    <style>
      .cls-1 {
        fill: #fff;
      }
    </style>
  </defs>
  <path id="FontAwsome_award_" data-name="FontAwsome (award)" class="cls-1" d="M4.551,16.99c-.407-.407-.195-.292-1.177-.555a3.382,3.382,0,0,1-1.192-.624L.054,21.025a.75.75,0,0,0,.723,1.033l2.47-.094,1.7,1.794a.75.75,0,0,0,1.239-.232l2.44-5.982a3.364,3.364,0,0,1-4.074-.553Zm13.391,4.034L15.815,15.81a3.374,3.374,0,0,1-1.192.624c-.988.264-.771.149-1.177.555a3.365,3.365,0,0,1-4.075.553l2.44,5.982a.75.75,0,0,0,1.239.232l1.7-1.794,2.47.094A.75.75,0,0,0,17.942,21.025Zm-5.616-5.1c.716-.729.8-.666,1.818-.944a1.9,1.9,0,0,0,1.335-1.358A3.012,3.012,0,0,1,16.7,11.483a1.944,1.944,0,0,0,.488-1.855,3.048,3.048,0,0,1,0-2.476A1.944,1.944,0,0,0,16.7,5.3a3.013,3.013,0,0,1-1.216-2.144,1.9,1.9,0,0,0-1.335-1.358A2.938,2.938,0,0,1,12.037.555a1.865,1.865,0,0,0-1.823-.5,2.9,2.9,0,0,1-2.433,0,1.864,1.864,0,0,0-1.823.5A2.936,2.936,0,0,1,3.852,1.793,1.9,1.9,0,0,0,2.518,3.151,3.012,3.012,0,0,1,1.3,5.3,1.943,1.943,0,0,0,.813,7.151a3.047,3.047,0,0,1,0,2.476A1.946,1.946,0,0,0,1.3,11.483a3.012,3.012,0,0,1,1.216,2.144,1.9,1.9,0,0,0,1.335,1.358c1.049.286,1.127.241,1.818.944A1.863,1.863,0,0,0,8,16.2a1.86,1.86,0,0,1,1.994,0A1.862,1.862,0,0,0,12.326,15.929ZM4.576,8.24A4.423,4.423,0,1,1,9,12.741a4.462,4.462,0,0,1-4.422-4.5Z" transform="translate(0.002 0.008)"/>
</svg>
